<svg xmlns="http://www.w3.org/2000/svg" width="21.206" height="21.206" viewBox="0 0 21.206 21.206">
  <path id="Icon_awesome-linkedin" data-name="Icon awesome-linkedin" d="M19.691,2.25H1.51A1.521,1.521,0,0,0,0,3.779V21.927a1.521,1.521,0,0,0,1.51,1.529H19.691a1.525,1.525,0,0,0,1.515-1.529V3.779A1.525,1.525,0,0,0,19.691,2.25ZM6.409,20.427H3.266V10.306H6.414v10.12ZM4.838,8.924A1.822,1.822,0,1,1,6.66,7.1,1.823,1.823,0,0,1,4.838,8.924Zm13.353,11.5H15.048V15.5c0-1.174-.024-2.684-1.633-2.684-1.638,0-1.889,1.278-1.889,2.6v5.008H8.383V10.306H11.4v1.382h.043a3.31,3.31,0,0,1,2.977-1.633c3.181,0,3.773,2.1,3.773,4.823Z" transform="translate(0 -2.25)" fill="#3a3f50"/>
</svg>
