<svg xmlns="http://www.w3.org/2000/svg" xmlns:xlink="http://www.w3.org/1999/xlink" width="99" height="75" viewBox="0 0 99 75">
  <defs>
    <clipPath id="clip-path">
      <rect id="Rectangle_4253" data-name="Rectangle 4253" width="99" height="75" transform="translate(911)" fill="#fff" stroke="#707070" stroke-width="1"/>
    </clipPath>
    <clipPath id="clip-path-2">
      <rect id="Rectangle_4252" data-name="Rectangle 4252" width="112" height="107" transform="translate(-0.228)" fill="#fff" stroke="#707070" stroke-width="1"/>
    </clipPath>
  </defs>
  <g id="Groupe_de_masques_5" data-name="Groupe de masques 5" transform="translate(-911)" clip-path="url(#clip-path)">
    <g id="Groupe_de_masques_3" data-name="Groupe de masques 3" transform="translate(904.228 -32)" clip-path="url(#clip-path-2)">
      <g id="Ellipse_147" data-name="Ellipse 147" transform="translate(7.772 20)" fill="none" stroke="#3a3f50" stroke-width="2">
        <circle cx="48.5" cy="48.5" r="48.5" stroke="none"/>
        <circle cx="48.5" cy="48.5" r="47.5" fill="none"/>
      </g>
    </g>
    <g id="Groupe_3147" data-name="Groupe 3147" transform="translate(944.226 16)">
      <path id="Tracé_591" data-name="Tracé 591" d="M14.679-44.521c7.959,0,15.61-2.619,15.61-11.451,0-7.959-6.213-11.194-11.5-12.118,6.419-.822,8.883-3.851,8.883-8.524,0-7.959-7.651-8.986-13.5-8.986H7.49c.257,4.775.257,6.521.257,9.243v22.594c0,2.722,0,4.467-.257,9.243ZM9.03-85.086h5.135c4.313,0,11.964,1.027,11.964,8.473,0,5.084-2.978,8.216-11.143,8.216H9.03Zm0,17.2H15.5c4.262,0,13.248,2.259,13.248,11.759,0,7.959-6.778,11.091-14.07,11.091H9.03Z" transform="translate(-6.225 86.8)" fill="#3a3f50"/>
      <path id="Tracé_591_-_Contour" data-name="Tracé 591 - Contour" d="M13.307-44.621H4.852l.068-1.264c.255-4.743.255-6.508.255-9.178V-77.657c0-2.671,0-4.435-.255-9.178L4.852-88.1h7.941a33.5,33.5,0,0,1,4.75.3,16.542,16.542,0,0,1,4.711,1.327,9.048,9.048,0,0,1,3.756,3.136A9.617,9.617,0,0,1,27.5-77.914a10.924,10.924,0,0,1-.552,3.581,7.884,7.884,0,0,1-1.827,2.966,9.469,9.469,0,0,1-3.145,2.062,14.953,14.953,0,0,1,3.96,2.43A11.813,11.813,0,0,1,28.952-62.9a13.3,13.3,0,0,1,1.164,5.625,12.247,12.247,0,0,1-1.475,6.106,10.892,10.892,0,0,1-3.924,3.958,17.112,17.112,0,0,1-5.369,2.014A29.743,29.743,0,0,1,13.307-44.621ZM8.858-47.534h4.449A16.144,16.144,0,0,0,22.4-49.887a8.584,8.584,0,0,0,3.777-7.539c0-8.352-7.881-10.559-12.048-10.559H8.858Zm0-23.364h4.757c8.813,0,9.943-3.75,9.943-7.016a6.085,6.085,0,0,0-3.688-5.949,17.017,17.017,0,0,0-7.077-1.324H8.858Z" transform="translate(-4.852 88.1)" fill="#3a3f50"/>
      <path id="Tracé_590" data-name="Tracé 590" d="M7.189,0C15.148,0,22.8,2.619,22.8,11.451c0,7.959-6.213,11.194-11.5,12.118,6.419.822,8.883,3.851,8.883,8.524,0,7.959-7.651,8.986-13.5,8.986H0c.257-4.775.257-6.521.257-9.243V9.243C.257,6.521.257,4.775,0,0ZM1.54,40.566H6.675c4.313,0,11.964-1.027,11.964-8.473,0-5.084-2.978-8.216-11.143-8.216H1.54Zm0-17.2H8.01c4.262,0,13.248-2.259,13.248-11.759C21.259,3.646,14.48.513,7.189.513H1.54Z" transform="translate(30.549 42.279) rotate(180)" fill="#3a3f50"/>
      <path id="Tracé_590_-_Contour" data-name="Tracé 590 - Contour" d="M0,0H8.455A29.743,29.743,0,0,1,14.5.573a17.111,17.111,0,0,1,5.369,2.014,10.892,10.892,0,0,1,3.924,3.958,12.247,12.247,0,0,1,1.475,6.106A13.3,13.3,0,0,1,24.1,18.276a11.813,11.813,0,0,1-3.017,3.979,14.953,14.953,0,0,1-3.96,2.43,9.469,9.469,0,0,1,3.145,2.062,7.884,7.884,0,0,1,1.827,2.966,10.924,10.924,0,0,1,.552,3.581,9.617,9.617,0,0,1-1.488,5.426A9.048,9.048,0,0,1,17.4,41.855a16.542,16.542,0,0,1-4.711,1.327,33.5,33.5,0,0,1-4.75.3H0l.068-1.264c.255-4.743.255-6.508.255-9.178V10.443c0-2.671,0-4.435-.255-9.178ZM9.276,23.364c4.167,0,12.048-2.207,12.048-10.559a8.584,8.584,0,0,0-3.777-7.539A16.144,16.144,0,0,0,8.455,2.913H4.006V23.364Zm-1.335,17.2a17.016,17.016,0,0,0,7.077-1.324,6.085,6.085,0,0,0,3.688-5.949c0-3.267-1.13-7.016-9.943-7.016H4.006V40.566Z" transform="translate(31.815 43.479) rotate(180)" fill="#3a3f50"/>
    </g>
    <g id="Groupe_de_masques_4" data-name="Groupe de masques 4" transform="translate(904.228 -32)" clip-path="url(#clip-path-2)">
      <g id="Ellipse_148" data-name="Ellipse 148" transform="translate(7.772 20)" fill="none" stroke="#3a3f50" stroke-width="2">
        <circle cx="48.5" cy="48.5" r="48.5" stroke="none"/>
        <circle cx="48.5" cy="48.5" r="47.5" fill="none"/>
      </g>
    </g>
  </g>
</svg>
