<svg id="Icon_ionic-ios-mail" data-name="Icon ionic-ios-mail" xmlns="http://www.w3.org/2000/svg" width="20.512" height="14.201" viewBox="0 0 20.512 14.201">
  <path id="Tracé_461" data-name="Tracé 461" d="M23.719,10.344l-5.306,5.4a.1.1,0,0,0,0,.138l3.713,3.955a.64.64,0,0,1,0,.907.643.643,0,0,1-.907,0l-3.7-3.94a.1.1,0,0,0-.143,0l-.9.917a3.97,3.97,0,0,1-2.83,1.193,4.05,4.05,0,0,1-2.889-1.228l-.868-.883a.1.1,0,0,0-.143,0l-3.7,3.94a.643.643,0,0,1-.907,0,.64.64,0,0,1,0-.907l3.713-3.955a.1.1,0,0,0,0-.138l-5.31-5.4a.1.1,0,0,0-.168.069V21.227A1.582,1.582,0,0,0,4.953,22.8H22.309a1.582,1.582,0,0,0,1.578-1.578V10.413A.1.1,0,0,0,23.719,10.344Z" transform="translate(-3.375 -8.604)" fill="#3a3f50"/>
  <path id="Tracé_462" data-name="Tracé 462" d="M13.885,16.9a2.681,2.681,0,0,0,1.928-.809L23.55,8.22a1.55,1.55,0,0,0-.976-.345H5.2a1.539,1.539,0,0,0-.976.345l7.736,7.875A2.681,2.681,0,0,0,13.885,16.9Z" transform="translate(-3.629 -7.875)" fill="#3a3f50"/>
</svg>
