<svg xmlns="http://www.w3.org/2000/svg" width="19.685" height="19.685" viewBox="0 0 19.685 19.685">
  <path id="Icon_awesome-phone-alt" data-name="Icon awesome-phone-alt" d="M19.124,13.911l-4.306-1.846a.923.923,0,0,0-1.077.265l-1.907,2.33A14.251,14.251,0,0,1,5.021,7.848l2.33-1.907a.92.92,0,0,0,.265-1.077L5.771.558A.929.929,0,0,0,4.714.024l-4,.923a.923.923,0,0,0-.715.9,17.838,17.838,0,0,0,17.84,17.84.923.923,0,0,0,.9-.715l.923-4a.934.934,0,0,0-.539-1.061Z" transform="translate(0 0)" fill="#3a3f50"/>
</svg>
